<mxfile host="app.diagrams.net" agent="Mozilla/5.0 (X11; Linux x86_64) AppleWebKit/537.36 (KHTML, like Gecko) Chrome/136.0.0.0 Safari/537.36" version="27.0.9">
  <diagram name="Page-1" id="txC3z_DWojdCmwLaJTaq">
    <mxGraphModel dx="1426" dy="797" grid="1" gridSize="10" guides="1" tooltips="1" connect="1" arrows="1" fold="1" page="1" pageScale="1" pageWidth="827" pageHeight="1169" math="0" shadow="0">
      <root>
        <mxCell id="0" />
        <mxCell id="1" parent="0" />
        <mxCell id="uKWoDDICKwsnE89RhWIm-1" value="Users" style="shape=umlLifeline;perimeter=lifelinePerimeter;whiteSpace=wrap;html=1;container=0;dropTarget=0;collapsible=0;recursiveResize=0;outlineConnect=0;portConstraint=eastwest;newEdgeStyle={&quot;edgeStyle&quot;:&quot;elbowEdgeStyle&quot;,&quot;elbow&quot;:&quot;vertical&quot;,&quot;curved&quot;:0,&quot;rounded&quot;:0};" vertex="1" parent="1">
          <mxGeometry x="220" y="200" width="100" height="800" as="geometry" />
        </mxCell>
        <mxCell id="uKWoDDICKwsnE89RhWIm-2" value="" style="html=1;points=[];perimeter=orthogonalPerimeter;outlineConnect=0;targetShapes=umlLifeline;portConstraint=eastwest;newEdgeStyle={&quot;edgeStyle&quot;:&quot;elbowEdgeStyle&quot;,&quot;elbow&quot;:&quot;vertical&quot;,&quot;curved&quot;:0,&quot;rounded&quot;:0};" vertex="1" parent="uKWoDDICKwsnE89RhWIm-1">
          <mxGeometry x="45" y="70" width="10" height="710" as="geometry" />
        </mxCell>
        <mxCell id="uKWoDDICKwsnE89RhWIm-3" value="" style="html=1;points=[];perimeter=orthogonalPerimeter;outlineConnect=0;targetShapes=umlLifeline;portConstraint=eastwest;newEdgeStyle={&quot;edgeStyle&quot;:&quot;elbowEdgeStyle&quot;,&quot;elbow&quot;:&quot;vertical&quot;,&quot;curved&quot;:0,&quot;rounded&quot;:0};" vertex="1" parent="uKWoDDICKwsnE89RhWIm-1">
          <mxGeometry x="50" y="120" width="10" height="80" as="geometry" />
        </mxCell>
        <mxCell id="uKWoDDICKwsnE89RhWIm-4" value="App Mobile" style="shape=umlLifeline;perimeter=lifelinePerimeter;whiteSpace=wrap;html=1;container=0;dropTarget=0;collapsible=0;recursiveResize=0;outlineConnect=0;portConstraint=eastwest;newEdgeStyle={&quot;edgeStyle&quot;:&quot;elbowEdgeStyle&quot;,&quot;elbow&quot;:&quot;vertical&quot;,&quot;curved&quot;:0,&quot;rounded&quot;:0};" vertex="1" parent="1">
          <mxGeometry x="440" y="200" width="100" height="800" as="geometry" />
        </mxCell>
        <mxCell id="uKWoDDICKwsnE89RhWIm-5" value="" style="html=1;points=[];perimeter=orthogonalPerimeter;outlineConnect=0;targetShapes=umlLifeline;portConstraint=eastwest;newEdgeStyle={&quot;edgeStyle&quot;:&quot;elbowEdgeStyle&quot;,&quot;elbow&quot;:&quot;vertical&quot;,&quot;curved&quot;:0,&quot;rounded&quot;:0};" vertex="1" parent="uKWoDDICKwsnE89RhWIm-4">
          <mxGeometry x="45" y="80" width="10" height="700" as="geometry" />
        </mxCell>
        <mxCell id="uKWoDDICKwsnE89RhWIm-6" value="" style="html=1;points=[[0,0,0,0,5],[0,1,0,0,-5],[1,0,0,0,5],[1,1,0,0,-5]];perimeter=orthogonalPerimeter;outlineConnect=0;targetShapes=umlLifeline;portConstraint=eastwest;newEdgeStyle={&quot;curved&quot;:0,&quot;rounded&quot;:0};" vertex="1" parent="uKWoDDICKwsnE89RhWIm-4">
          <mxGeometry x="40" y="220" width="10" height="40" as="geometry" />
        </mxCell>
        <mxCell id="uKWoDDICKwsnE89RhWIm-7" value="verifie les informations" style="html=1;align=left;spacingLeft=2;endArrow=block;rounded=0;edgeStyle=orthogonalEdgeStyle;curved=0;rounded=0;" edge="1" parent="uKWoDDICKwsnE89RhWIm-4" target="uKWoDDICKwsnE89RhWIm-6">
          <mxGeometry relative="1" as="geometry">
            <mxPoint x="45" y="200" as="sourcePoint" />
            <Array as="points">
              <mxPoint x="75" y="230" />
            </Array>
          </mxGeometry>
        </mxCell>
        <mxCell id="uKWoDDICKwsnE89RhWIm-8" value="Demande de signalement" style="html=1;verticalAlign=bottom;endArrow=block;edgeStyle=elbowEdgeStyle;elbow=vertical;curved=0;rounded=0;" edge="1" parent="1" source="uKWoDDICKwsnE89RhWIm-2" target="uKWoDDICKwsnE89RhWIm-5">
          <mxGeometry relative="1" as="geometry">
            <mxPoint x="375" y="290" as="sourcePoint" />
            <Array as="points">
              <mxPoint x="360" y="280" />
            </Array>
          </mxGeometry>
        </mxCell>
        <mxCell id="uKWoDDICKwsnE89RhWIm-9" value="Renvoi la page de signalement" style="html=1;verticalAlign=bottom;endArrow=block;edgeStyle=elbowEdgeStyle;elbow=horizontal;curved=0;rounded=0;" edge="1" parent="1" source="uKWoDDICKwsnE89RhWIm-5" target="uKWoDDICKwsnE89RhWIm-3">
          <mxGeometry relative="1" as="geometry">
            <mxPoint x="355" y="320" as="sourcePoint" />
            <Array as="points">
              <mxPoint x="370" y="320" />
            </Array>
          </mxGeometry>
        </mxCell>
        <mxCell id="uKWoDDICKwsnE89RhWIm-10" value="System" style="shape=umlLifeline;perimeter=lifelinePerimeter;whiteSpace=wrap;html=1;container=0;dropTarget=0;collapsible=0;recursiveResize=0;outlineConnect=0;portConstraint=eastwest;newEdgeStyle={&quot;edgeStyle&quot;:&quot;elbowEdgeStyle&quot;,&quot;elbow&quot;:&quot;vertical&quot;,&quot;curved&quot;:0,&quot;rounded&quot;:0};" vertex="1" parent="1">
          <mxGeometry x="650" y="200" width="100" height="800" as="geometry" />
        </mxCell>
        <mxCell id="uKWoDDICKwsnE89RhWIm-11" value="" style="html=1;points=[];perimeter=orthogonalPerimeter;outlineConnect=0;targetShapes=umlLifeline;portConstraint=eastwest;newEdgeStyle={&quot;edgeStyle&quot;:&quot;elbowEdgeStyle&quot;,&quot;elbow&quot;:&quot;vertical&quot;,&quot;curved&quot;:0,&quot;rounded&quot;:0};" vertex="1" parent="uKWoDDICKwsnE89RhWIm-10">
          <mxGeometry x="45" y="70" width="10" height="710" as="geometry" />
        </mxCell>
        <mxCell id="uKWoDDICKwsnE89RhWIm-12" value="" style="html=1;points=[[0,0,0,0,5],[0,1,0,0,-5],[1,0,0,0,5],[1,1,0,0,-5]];perimeter=orthogonalPerimeter;outlineConnect=0;targetShapes=umlLifeline;portConstraint=eastwest;newEdgeStyle={&quot;curved&quot;:0,&quot;rounded&quot;:0};" vertex="1" parent="uKWoDDICKwsnE89RhWIm-10">
          <mxGeometry x="40" y="260" width="10" height="90" as="geometry" />
        </mxCell>
        <mxCell id="uKWoDDICKwsnE89RhWIm-13" value="BD" style="shape=umlLifeline;perimeter=lifelinePerimeter;whiteSpace=wrap;html=1;container=0;dropTarget=0;collapsible=0;recursiveResize=0;outlineConnect=0;portConstraint=eastwest;newEdgeStyle={&quot;edgeStyle&quot;:&quot;elbowEdgeStyle&quot;,&quot;elbow&quot;:&quot;vertical&quot;,&quot;curved&quot;:0,&quot;rounded&quot;:0};" vertex="1" parent="1">
          <mxGeometry x="880" y="200" width="100" height="800" as="geometry" />
        </mxCell>
        <mxCell id="uKWoDDICKwsnE89RhWIm-14" value="" style="html=1;points=[];perimeter=orthogonalPerimeter;outlineConnect=0;targetShapes=umlLifeline;portConstraint=eastwest;newEdgeStyle={&quot;edgeStyle&quot;:&quot;elbowEdgeStyle&quot;,&quot;elbow&quot;:&quot;vertical&quot;,&quot;curved&quot;:0,&quot;rounded&quot;:0};" vertex="1" parent="uKWoDDICKwsnE89RhWIm-13">
          <mxGeometry x="45" y="70" width="10" height="710" as="geometry" />
        </mxCell>
        <mxCell id="uKWoDDICKwsnE89RhWIm-15" value="" style="html=1;points=[];perimeter=orthogonalPerimeter;outlineConnect=0;targetShapes=umlLifeline;portConstraint=eastwest;newEdgeStyle={&quot;edgeStyle&quot;:&quot;elbowEdgeStyle&quot;,&quot;elbow&quot;:&quot;vertical&quot;,&quot;curved&quot;:0,&quot;rounded&quot;:0};" vertex="1" parent="uKWoDDICKwsnE89RhWIm-13">
          <mxGeometry x="40" y="260" width="10" height="80" as="geometry" />
        </mxCell>
        <mxCell id="uKWoDDICKwsnE89RhWIm-16" value="Failed" style="shape=umlFrame;whiteSpace=wrap;html=1;pointerEvents=0;" vertex="1" parent="1">
          <mxGeometry x="210" y="630" width="760" height="70" as="geometry" />
        </mxCell>
        <mxCell id="uKWoDDICKwsnE89RhWIm-17" value="Remplie les informations necessaires" style="html=1;verticalAlign=bottom;endArrow=open;dashed=1;endSize=8;curved=0;rounded=0;" edge="1" parent="1" target="uKWoDDICKwsnE89RhWIm-4">
          <mxGeometry relative="1" as="geometry">
            <mxPoint x="280" y="390" as="sourcePoint" />
            <mxPoint x="389.5" y="390" as="targetPoint" />
          </mxGeometry>
        </mxCell>
        <mxCell id="uKWoDDICKwsnE89RhWIm-18" value="Renvoie une reponse" style="html=1;verticalAlign=bottom;endArrow=open;dashed=1;endSize=8;curved=0;rounded=0;" edge="1" parent="1" target="uKWoDDICKwsnE89RhWIm-10">
          <mxGeometry relative="1" as="geometry">
            <mxPoint x="920" y="520" as="sourcePoint" />
            <mxPoint x="840" y="520" as="targetPoint" />
          </mxGeometry>
        </mxCell>
        <mxCell id="uKWoDDICKwsnE89RhWIm-19" value="" style="endArrow=open;endFill=1;endSize=12;html=1;rounded=0;" edge="1" parent="1">
          <mxGeometry width="160" relative="1" as="geometry">
            <mxPoint x="490" y="459.99999999999994" as="sourcePoint" />
            <mxPoint x="690" y="459.99999999999994" as="targetPoint" />
          </mxGeometry>
        </mxCell>
        <mxCell id="uKWoDDICKwsnE89RhWIm-20" value="Envoie les informations" style="edgeLabel;html=1;align=center;verticalAlign=middle;resizable=0;points=[];" vertex="1" connectable="0" parent="uKWoDDICKwsnE89RhWIm-19">
          <mxGeometry x="0.045" y="-1" relative="1" as="geometry">
            <mxPoint x="-4" y="-11" as="offset" />
          </mxGeometry>
        </mxCell>
        <mxCell id="uKWoDDICKwsnE89RhWIm-21" value="" style="endArrow=open;endFill=1;endSize=12;html=1;rounded=0;" edge="1" parent="1" target="uKWoDDICKwsnE89RhWIm-13">
          <mxGeometry width="160" relative="1" as="geometry">
            <mxPoint x="700" y="470" as="sourcePoint" />
            <mxPoint x="860" y="470" as="targetPoint" />
          </mxGeometry>
        </mxCell>
        <mxCell id="uKWoDDICKwsnE89RhWIm-22" value="Verifie si les informations sont corrects" style="edgeLabel;html=1;align=center;verticalAlign=middle;resizable=0;points=[];" vertex="1" connectable="0" parent="uKWoDDICKwsnE89RhWIm-21">
          <mxGeometry x="-0.0821" y="-3" relative="1" as="geometry">
            <mxPoint x="5" y="-13" as="offset" />
          </mxGeometry>
        </mxCell>
        <mxCell id="uKWoDDICKwsnE89RhWIm-23" value="Renvoie la reponse" style="html=1;verticalAlign=bottom;endArrow=open;dashed=1;endSize=8;curved=0;rounded=0;" edge="1" parent="1" target="uKWoDDICKwsnE89RhWIm-4">
          <mxGeometry relative="1" as="geometry">
            <mxPoint x="690" y="530" as="sourcePoint" />
            <mxPoint x="610" y="530" as="targetPoint" />
          </mxGeometry>
        </mxCell>
        <mxCell id="uKWoDDICKwsnE89RhWIm-24" value="Renvoie sur la page des signalements" style="html=1;verticalAlign=bottom;endArrow=open;dashed=1;endSize=8;curved=0;rounded=0;" edge="1" parent="1" source="uKWoDDICKwsnE89RhWIm-5">
          <mxGeometry relative="1" as="geometry">
            <mxPoint x="350" y="580" as="sourcePoint" />
            <mxPoint x="270" y="580" as="targetPoint" />
          </mxGeometry>
        </mxCell>
        <mxCell id="uKWoDDICKwsnE89RhWIm-25" value="Success" style="shape=umlFrame;whiteSpace=wrap;html=1;pointerEvents=0;" vertex="1" parent="1">
          <mxGeometry x="210" y="550" width="760" height="70" as="geometry" />
        </mxCell>
        <mxCell id="uKWoDDICKwsnE89RhWIm-26" value="Renvoie un message d&#39;erreur" style="html=1;verticalAlign=bottom;endArrow=open;dashed=1;endSize=8;curved=0;rounded=0;" edge="1" parent="1">
          <mxGeometry relative="1" as="geometry">
            <mxPoint x="485" y="664.5799999999999" as="sourcePoint" />
            <mxPoint x="270" y="664.5799999999999" as="targetPoint" />
          </mxGeometry>
        </mxCell>
        <mxCell id="uKWoDDICKwsnE89RhWIm-27" value="Citoyens" style="shape=umlFrame;whiteSpace=wrap;html=1;pointerEvents=0;" vertex="1" parent="1">
          <mxGeometry x="140" y="540" width="920" height="200" as="geometry" />
        </mxCell>
      </root>
    </mxGraphModel>
  </diagram>
</mxfile>
